<?xml version="1.0" encoding="UTF-8" standalone="no"?>
<!-- Creator: CorelDRAW -->

<svg
   xml:space="preserve"
   width="900"
   height="400"
   version="1.1"
   style="clip-rule:evenodd;fill-rule:evenodd;image-rendering:optimizeQuality;shape-rendering:geometricPrecision;text-rendering:geometricPrecision"
   viewBox="0 0 9375 4166.6667"
   id="svg6"
   sodipodi:docname="jago.svg"
   inkscape:version="1.3.2 (091e20e, 2023-11-25, custom)"
   xmlns:inkscape="http://www.inkscape.org/namespaces/inkscape"
   xmlns:sodipodi="http://sodipodi.sourceforge.net/DTD/sodipodi-0.dtd"
   xmlns="http://www.w3.org/2000/svg"
   xmlns:svg="http://www.w3.org/2000/svg"><sodipodi:namedview
   id="namedview6"
   pagecolor="#ffffff"
   bordercolor="#000000"
   borderopacity="0.25"
   inkscape:showpageshadow="2"
   inkscape:pageopacity="0.0"
   inkscape:pagecheckerboard="0"
   inkscape:deskcolor="#d1d1d1"
   inkscape:document-units="in"
   inkscape:zoom="0.45170455"
   inkscape:cx="407.34591"
   inkscape:cy="528"
   inkscape:window-width="1366"
   inkscape:window-height="715"
   inkscape:window-x="-8"
   inkscape:window-y="-8"
   inkscape:window-maximized="1"
   inkscape:current-layer="Layer_x0020_1" />
 <defs
   id="defs1">
  <style
   type="text/css"
   id="style1">
   <![CDATA[
    .fil1 {fill:black;fill-rule:nonzero}
    .fil0 {fill:#FDAF27;fill-rule:nonzero}
   ]]>
  </style>
 </defs>
 <g
   id="Layer_x0020_1"
   inkscape:label="Layer 1"
   inkscape:groupmode="layer">
  <metadata
   id="CorelCorpID_0Corel-Layer" />
  <g
   id="Logo_x0020_Bank_x0020_Jago.cdr"
   transform="translate(437.43985,-3416.5749)">
   <path
   class="fil0"
   d="m 1532,4174 c -114,-23 -233,32 -294,136 -14,25 -24,51 -31,79 -26,-107 -110,-193 -216,-215 -115,-23 -234,32 -294,136 -14,25 -25,51 -31,79 -27,-107 -110,-193 -216,-215 -115,-23 -234,32 -294,136 -61,105 -51,242 23,336 75,95 201,131 311,90 88,-33 153,-111 176,-203 10,41 28,80 55,113 74,95 200,131 310,90 88,-33 154,-111 176,-203 10,41 28,80 55,113 74,95 200,131 311,90 109,-41 185,-153 185,-275 -1,-138 -96,-260 -226,-287 z"
   id="path1" />
   <path
   class="fil0"
   d="m 639,5593 c 28,128 101,246 228,283 120,34 255,-22 317,-136 37,-68 32,-146 32,-222 0,-51 0,-102 0,-153 0,-56 0,-112 0,-168 0,-72 -2,-142 33,-207 47,-90 141,-146 240,-142 99,4 190,69 229,165 27,63 22,132 22,199 0,56 0,112 0,168 0,120 8,245 -15,364 -51,274 -233,512 -480,622 -246,110 -538,81 -760,-76 -109,-77 -199,-183 -259,-307 -58,-122 -94,-274 -71,-410 16,-102 93,-185 190,-206 101,-21 206,27 258,119 19,34 28,70 36,107 z"
   id="path2" />
   <path
   class="fil1"
   d="m 8384,5575 c 0,372 -292,669 -661,669 -366,0 -653,-294 -653,-669 0,-375 287,-668 655,-668 367,0 659,295 659,668 z m -975,2 c 0,202 133,347 317,347 180,0 316,-148 316,-347 0,-202 -136,-352 -316,-352 -184,0 -317,148 -317,352 z"
   id="path3" />
   <path
   class="fil1"
   d="m 3098,5826 c 62,38 122,76 197,71 71,-4 136,-43 177,-105 38,-56 37,-122 37,-187 0,-112 0,-874 0,-929 0,-39 -2,-77 12,-113 42,-109 178,-144 263,-68 46,41 59,97 59,156 0,120 3,950 -1,1033 -8,148 -72,292 -174,396 -105,108 -249,167 -396,167 -141,0 -290,-57 -382,-172 -37,-46 -59,-101 -44,-161 14,-59 59,-106 115,-119 51,-13 94,5 137,31 z"
   id="path4" />
   <path
   class="fil1"
   d="m 5413,5934 v -1 c -51,-32 -83,-90 -84,-152 v -699 c 0,-96 -74,-175 -167,-175 -84,0 -154,66 -165,151 -84,-95 -212,-151 -365,-151 -344,0 -594,282 -594,670 0,388 250,670 594,670 1,0 3,0 5,0 1,0 3,0 4,0 165,0 308,-65 413,-175 53,86 139,150 242,169 10,2 20,3 30,3 1,0 1,0 2,0 1,0 2,0 2,0 89,0 160,-75 160,-167 1,-61 -30,-114 -77,-143 z m -719,-5 c -186,0 -317,-148 -317,-352 0,-204 134,-354 317,-354 183,0 309,145 309,354 0,210 -124,352 -309,352 z"
   id="path5" />
   <path
   class="fil1"
   d="m 6888,5083 c 0,-101 -70,-176 -164,-176 -86,0 -156,68 -163,161 -84,-101 -215,-161 -374,-161 -344,0 -594,282 -594,670 0,388 250,670 594,670 155,0 282,-56 367,-155 v 41 c -2,209 -126,349 -310,349 -79,0 -150,-26 -205,-76 -21,-18 -39,-40 -54,-64 -51,-80 -155,-102 -232,-49 -76,54 -97,162 -46,242 32,51 71,97 115,136 116,105 262,160 422,160 369,0 637,-288 643,-687 l 1,-76 c 0,0 0,0 0,0 z m -639,846 c -185,0 -316,-148 -316,-352 0,-204 133,-354 316,-354 183,0 310,145 310,354 0,210 -124,352 -310,352 z"
   id="path6" />
  </g>
 </g>
</svg>
